<?xml version="1.0" encoding="UTF-8"?>
<svg width="219px" height="283px" viewBox="0 0 219 283" version="1.1" xmlns="http://www.w3.org/2000/svg"
    xmlns:xlink="http://www.w3.org/1999/xlink">
    <title>Resource empty</title>
    <desc>Created with Sketch.</desc>
    <defs>
        <path
            d="M102,38.9976735 C98.2580741,16.9224418 76.849101,0 50.9985704,0 C25.1541576,0 3.74920029,16.9144329 0,38.9820013 C-0.0384427392,39.2108821 22.9143412,35.0994027 49.0478646,35.311891 C75.4622643,35.1423492 102.150481,39.1096361 102,38.9976735 Z"
            id="path-1"></path>
        <path
            d="M102,38.9976735 C98.2580741,16.9224418 76.849101,0 50.9985704,0 C25.1541576,0 3.74920029,16.9144329 0,38.9820013 C-0.0384427392,39.2108821 22.9143412,35.0994027 49.0478646,35.311891 C75.4622643,35.1423492 102.150481,39.1096361 102,38.9976735 Z"
            id="path-3"></path>
        <path
            d="M109.2,60 C169.509495,60 218.4,46.463654 218.4,29 C218.4,14.7075745 169.509495,0 109.2,0 C48.8905053,0 -1.84741111e-13,12.0590533 -1.84741111e-13,29 C-1.84741111e-13,44.8478894 48.8905053,60 109.2,60 Z"
            id="path-5"></path>
        <path
            d="M109.2,60 C169.509495,60 218.4,46.463654 218.4,29 C218.4,14.7075745 169.509495,0 109.2,0 C48.8905053,0 -1.84741111e-13,12.0590533 -1.84741111e-13,29 C-1.84741111e-13,44.8478894 48.8905053,60 109.2,60 Z"
            id="path-7"></path>
        <linearGradient x1="50%" y1="13.6345423%" x2="50%" y2="111.378801%" id="linearGradient-9">
            <stop stop-color="#DBDBDB" offset="0%"></stop>
            <stop stop-color="#FAFAFA" offset="100%"></stop>
        </linearGradient>
        <path
            d="M25,1.54707725 C34,0.528741109 43,0.0195730363 52,0.0195730363 C61,0.0195730363 70,0.528741109 79,1.54707725 L100.837711,155.059164 C100.915493,155.605944 100.535295,156.112251 99.9885147,156.190033 C99.9418628,156.196669 99.8948001,156.2 99.8476786,156.2 L1.17463377,156.2 C0.622349019,156.2 0.174633769,155.752285 0.174633769,155.2 C0.174633769,155.146549 0.178919203,155.093185 0.187448883,155.040419 L25,1.54707725 L25,1.54707725 Z"
            id="path-10"></path>
        <path
            d="M25,3.18425942 C33.586909,1.78616602 42.3803635,1.08711932 51.3803635,1.08711932 C60.3803635,1.08711932 69.586909,1.69069799 79,2.89785535 L100.836107,155.057948 C100.91456,155.604632 100.534984,156.111406 99.9883,156.189859 C99.9412505,156.196611 99.8937794,156.2 99.8462478,156.2 L1.1766408,156.2 C0.624356055,156.2 0.176640805,155.752285 0.176640805,155.2 C0.176640805,155.145987 0.181016928,155.092062 0.189726227,155.038756 L25,3.18425942 L25,3.18425942 Z"
            id="path-12"></path>
    </defs>
    <g id="Page-1" stroke="none" stroke-width="1" fill="none" fill-rule="evenodd">
        <g id="empty" transform="translate(-631.000000, -812.000000)">
            <g id="插画" transform="translate(631.000000, 811.000000)">
                <g id="id_s-2" transform="translate(58.000000, 43.000000)">
                    <mask id="mask-2" fill="white">
                        <use xlink:href="#path-1"></use>
                    </mask>
                    <use id="id_m" stroke="#292929" stroke-width="2" fill="#FFFFFF" xlink:href="#path-1"></use>
                    <g mask="url(#mask-2)" fill="#FFFFFF" id="id_tyx" stroke="#292929" stroke-width="2">
                        <g transform="translate(10.000000, 5.000000)">
                            <circle cx="76.2947368" cy="6.75" r="5"></circle>
                            <circle cx="41.1473684" cy="6" r="5"></circle>
                            <circle cx="6" cy="7.75" r="5"></circle>
                        </g>
                    </g>
                    <mask id="mask-4" fill="white">
                        <use xlink:href="#path-3"></use>
                    </mask>
                    <use id="id_m" stroke="#292929" stroke-width="2" xlink:href="#path-3"></use>
                </g>
                <g id="id_1" transform="translate(0.000000, 64.600000)">
                    <mask id="mask-6" fill="white">
                        <use xlink:href="#path-5"></use>
                    </mask>
                    <path stroke="#292929" stroke-width="2.2"
                        d="M109.2,1.1 C78.7337605,1.1 51.1909256,4.18208589 31.439554,9.42741352 C21.7317921,12.0054821 13.919737,15.0977135 8.60655711,18.6166856 C3.86737038,21.7554963 1.1,25.206099 1.1,29 C1.1,32.7116058 4.13130243,36.2890971 9.26421198,39.6621059 C14.9292319,43.3847825 23.2029026,46.8113122 33.4359307,49.7162927 C53.0219477,55.2764257 79.7441152,58.9 109.2,58.9 C139.386014,58.9 166.70155,55.5023334 186.408915,49.9077519 C196.258064,47.1117481 204.194188,43.77519 209.600671,40.0277651 C214.469093,36.653289 217.3,32.9722528 217.3,29 C217.3,25.6295617 214.17586,22.3510771 208.979274,19.2161614 C203.214105,15.7382398 194.812104,12.4990108 184.433786,9.74286396 C164.894477,4.55385341 138.389296,1.1 109.2,1.1 Z">
                    </path>
                    <path
                        d="M2.09901683,33.879408 C2.05869137,34.832545 3.63976734,36.3758204 6.00120394,38.3441345 C8.60334881,40.5130847 12.3467823,43.084919 17.0644747,45.811847 C24.7635751,50.2620932 35.0431153,55.1147853 47.2015496,59.2915036 C64.678923,65.2954069 86.0373105,69.9022454 109.210101,69.9022918 C137.791981,70.1647727 159.872275,66.057616 176.426568,60.4862075 C187.690181,56.6953967 196.386651,52.2296923 202.823917,48.0109035 C212.571653,41.6225325 217.288478,35.8692852 217.299979,34.256476 C217.283314,33.083047 216.531329,31.9233881 215.293692,30.7402618 C213.787243,29.300164 211.553426,27.8643775 208.709908,26.4415559 C202.630872,23.3997665 193.819495,20.4602057 183.234877,17.8545595 C162.639041,12.7844223 135.359008,8.99595515 108.340929,8.26394823 C81.3440171,7.53251481 54.0429956,10.5081121 33.7785302,15.5413659 C23.586866,18.0727543 15.1848349,21.1175174 9.53211259,24.4832607 C6.92552142,26.0352769 4.91532239,27.6450473 3.62431944,29.3127625 C2.51150161,30.7502986 1.94690755,32.2204551 2.09901683,33.879408 Z"
                        id="id_tyx" stroke="#292929" stroke-width="2.2" fill="#FFFFFF" mask="url(#mask-6)"></path>
                    <path
                        d="M217.191989,34.4472059 C202.506486,22.2052995 148.713412,13.2051351 97.8467691,12.9718834 C55.9107971,12.7795838 15.778823,18.493458 1.26118704,33.7273359 C0.630358913,34.865886 0.563337918,36.3112979 1.26702331,37.9229208 C1.97834224,39.5520264 3.43465459,41.3212131 5.82273306,43.1627651 C9.98473663,46.3722686 16.8914686,49.7281655 27.6191443,52.7990763 C44.3852275,57.5985452 70.3819549,61.659449 109.680818,63.2595704 C138.740957,63.7066432 160.79738,60.4212749 177.168987,55.863319 C188.322537,52.7581023 196.826838,49.0650942 203.099507,45.5673775 C207.416859,43.1599691 210.670263,40.8489917 212.996389,38.8923194 C214.544248,37.5903031 215.674967,36.4513202 216.427467,35.5521027 C216.752027,35.1642619 217.002056,34.8277727 217.191989,34.4472059 Z"
                        id="id_tyx" stroke="#292929" stroke-width="2.2" mask="url(#mask-6)"></path>
                    <mask id="mask-8" fill="white">
                        <use xlink:href="#path-7"></use>
                    </mask>
                    <path stroke="#292929" stroke-width="2"
                        d="M109.2,1 C78.7236434,1 51.171778,4.08370464 31.4138869,9.33076364 C21.6932531,11.9122506 13.8714725,15.0097356 8.55133881,18.5333133 C3.77409902,21.6973269 1,25.1797223 1,29 C1,32.7360715 4.03615279,36.3462299 9.20929471,39.7456768 C14.8808531,43.47265 23.1636556,46.904122 33.4086215,49.8124915 C53.0016983,55.3746286 79.7334454,59 109.2,59 C139.396758,59 166.721889,55.600511 186.436224,50.0039507 C196.298281,47.2042825 204.24416,43.8622259 209.657638,40.1099525 C214.562343,36.7103271 217.4,32.9981424 217.4,29 C217.4,25.6058646 214.272994,22.2928874 209.030929,19.1305357 C203.259599,15.6488978 194.848965,12.4053337 184.459453,9.64621407 C164.913478,4.45543322 138.399294,1 109.2,1 Z">
                    </path>
                    <path
                        d="M110.2,45.6 C91.1931069,45.6 73.9150032,47.5330501 68.213957,54.7661543 C67.0640219,56.2251146 67.1744341,58.333649 67.19418,60.3441025 C67.1967934,60.6101974 67.1993858,60.875472 67.1999058,61.1387184 C67.4522056,62.3844134 68.5049921,63.4100551 70.0832017,64.3220152 C72.059241,65.4638591 74.8629929,66.3908744 78.3285773,67.1410461 C86.0423373,68.8107915 96.9682656,69.5708994 109.474985,69.5991828 L110.201127,69.6000006 C123.203673,69.6 134.304306,69.0788537 142.089847,67.4212813 C145.407593,66.7149201 148.109385,65.8083766 150.068622,64.6285566 C151.683114,63.6563372 152.780602,62.5085737 153.199432,61.0966122 C153.179436,58.4477864 152.566926,56.7121583 151.30783,54.7833937 C144.896215,48.3750162 128.31903,45.6 110.2,45.6 Z"
                        id="id_tyx" stroke="#292929" stroke-width="2" fill="#FFFFFF"></path>
                </g>
                <path
                    d="M110.2,118.3 C97.995061,118.3 86.9577715,119.169164 79.0264397,120.633757 C75.1496203,121.349647 72.0279565,122.201622 69.9039283,123.172733 C68.9826544,123.593942 68.2618227,124.027174 67.7828546,124.492293 C67.507763,124.75943 67.3,125.022745 67.3,125.325 C67.3,126.454466 68.5996931,127.587035 70.5731861,128.73556 C72.8474536,130.059128 76.1512997,131.325387 80.4236165,132.381329 C87.6773773,134.174162 97.6800993,135.343201 110.204933,135.100011 C122.454633,135.154943 133.082068,133.951441 140.778876,132.049106 C144.801637,131.054843 148.010512,129.876849 150.200855,128.579681 C151.926933,127.55746 153.1,126.508479 153.1,125.325 C153.1,125.055747 152.870287,124.831464 152.602967,124.592411 C152.090181,124.133849 151.320748,123.698632 150.336403,123.270867 C148.113739,122.304967 144.861967,121.429334 140.835852,120.685875 C132.947706,119.229257 122.131944,118.3 110.2,118.3 Z"
                    id="id_tyx" stroke="#292929" stroke-width="2.2" fill="#292929"></path>
                <path d="M94.2116226,179.255491 C94.4917035,172.836752 96.6808534,168.67325 100.779072,166.764985"
                    id="id_path" stroke="#292929" stroke-width="1.8" stroke-linecap="round"
                    transform="translate(97.495347, 173.010238) rotate(5.000000) translate(-97.495347, -173.010238) ">
                </path>
                <path d="M70.6099298,116.745377 C44.9431283,109.042644 25.9527078,100.230987 13.6386682,90.3104054"
                    id="id_path-2" stroke="#292929" stroke-width="2.2" stroke-linecap="round"></path>
                <path d="M34.0744753,83.7910143 C44.6220011,95.0553245 58.9144792,104.966415 76.9519097,113.524285"
                    id="id_path-3" stroke="#292929" stroke-width="2.2" stroke-linecap="round"></path>
                <path d="M89.51502,111.044434 C75.8741752,102.861352 64.2272089,88.1191264 61.5117171,79.5141323"
                    id="id_path-4" stroke="#292929" stroke-width="2.2" stroke-linecap="round"></path>
                <g id="id_s-3"
                    transform="translate(166.638668, 99.514132) scale(-1, 1) translate(-166.638668, -99.514132) translate(129.638668, 81.514132)"
                    stroke="#292929" stroke-linecap="round" stroke-width="2.2">
                    <path d="M54.9712616,35.2312443 C27.2188389,25.7913857 9.21488649,17.7360907 0.959404378,11.0653592"
                        id="id_path-2"></path>
                    <path d="M20.7594291,4.67606055 C31.0495799,14.9537693 45.3314651,24.6156366 62.0771892,32.560656"
                        id="id_path-3"></path>
                    <path d="M73.8763518,29.5303016 C61.580869,22.1542965 50.9053576,9.44916775 46.9304989,0.712983232"
                        id="id_path-4"></path>
                </g>
                <line x1="109" y1="78.4525314" x2="109" y2="110.2" id="id_path-5" stroke="#292929" stroke-width="2.2"
                    stroke-linecap="round"></line>
                <g id="id_tyx" transform="translate(57.000000, 117.200000)">
                    <mask id="mask-11" fill="white">
                        <use xlink:href="#path-10"></use>
                    </mask>
                    <g id="id_m">
                        <use fill="#FFFFFF" xlink:href="#path-10"></use>
                        <use fill="url(#linearGradient-9)" xlink:href="#path-10"></use>
                    </g>
                    <path
                        d="M53.2,1.1 C40.995061,1.1 29.9577715,1.96916415 22.0264397,3.43375667 C18.1496203,4.14964661 15.0279565,5.00162244 12.9039283,5.97273346 C11.9826544,6.39394222 11.2618227,6.82717429 10.7828546,7.2922925 C10.507763,7.55942951 10.3,7.82274459 10.3,8.125 C10.3,9.39773729 11.3281612,10.4677025 12.8967919,11.4543466 C14.9300534,12.7332363 17.9304814,13.8237799 21.6615573,14.7308169 C29.6065561,16.6622726 40.7998537,17.7215465 53.2,17.7215465 C65.5176718,17.7215465 76.644396,16.6294211 84.5791075,14.7004663 C88.3568911,13.7820745 91.3972012,12.6824913 93.4600844,11.4067603 C95.0468666,10.4254604 96.1,9.37247122 96.1,8.125 C96.1,7.85574662 95.8702873,7.63146406 95.6029666,7.39241087 C95.0901814,6.93384936 94.3207482,6.49863249 93.3364027,6.07086668 C91.1137392,5.10496667 87.8619672,4.22933412 83.835852,3.48587535 C75.9477059,2.02925747 65.1319445,1.1 53.2,1.1 Z"
                        stroke="#292929" stroke-width="2.2" fill="#FFFFFF" mask="url(#mask-11)"></path>
                    <mask id="mask-13" fill="white">
                        <use xlink:href="#path-12"></use>
                    </mask>
                    <g id="id_m"></g>
                </g>
                <g id="box"
                    transform="translate(108.000000, 200.500000) rotate(-10.000000) translate(-108.000000, -200.500000) translate(78.000000, 161.000000)"
                    stroke="#292929" stroke-width="1.9">
                    <path
                        d="M2.83381875,30.1754509 L2.94388598,60.5088426 L30.1690458,76.2603154 L30.0742012,45.4637857 L2.83381875,30.1754509 Z"
                        id="id_sq" fill="#FFFFFF"></path>
                    <path
                        d="M30.4669963,30.5309257 L30.4669963,60.525255 L57.2884299,76.066796 L57.2884299,46.06056 L30.4669963,30.5309257 Z"
                        id="id_sq" fill="#FFFFFF"
                        transform="translate(43.877713, 53.292868) scale(-1, 1) translate(-43.877713, -53.292868) ">
                    </path>
                    <path
                        d="M49.2410853,10.8046347 C49.1777571,10.7684482 49.1006241,10.7564206 49.0246969,10.777129 L18.6970562,19.0487126 C18.597813,19.0757803 18.5097138,19.1285382 18.4401363,19.1994653 C18.3705588,19.2703925 18.319503,19.359489 18.2943468,19.4592338 L10.8453461,48.9946623 C10.8333907,49.0420658 10.8338301,49.0917477 10.8466223,49.1389323 C10.8672153,49.2148909 10.916647,49.2753115 10.9799202,49.3115943 C11.0431934,49.347877 11.1203079,49.3600219 11.1962665,49.3394289 L41.0029203,41.2586031 C41.1004418,41.2321642 41.1766742,41.1560661 41.203285,41.0585914 L49.3746274,11.1271445 C49.3880365,11.0780272 49.3880428,11.0262145 49.2410853,10.8046347 Z"
                        id="id_sq" fill="#FFFFFF"
                        transform="translate(30.134300, 30.050120) rotate(45.000000) translate(-30.134300, -30.050120) ">
                    </path>
                    <path
                        d="M46.064019,26.0771188 L14.8563102,31.2467889 L13.1484974,35.9876063 L43.3128578,30.8558831 C43.8333787,30.7673293 44.3615033,30.9502364 44.7156074,31.3378787 L49.5167818,35.9107158 L50.9085818,31.8127256 L46.064019,26.0771188 Z"
                        id="id_sq" fill="#FFC954"
                        transform="translate(31.841890, 31.841019) rotate(40.000000) translate(-31.841890, -31.841019) ">
                    </path>
                </g>
                <g id="-Embellishment" transform="translate(2.000000, 0.000000)" fill="#FFFFFF" stroke="#292929">
                    <path
                        d="M24.1600407,185.628478 C24.0859154,185.608475 24.0041594,185.616751 23.9323423,185.658045 L21.4409519,187.090577 C19.6200899,188.137559 17.3799101,188.137559 15.5590481,187.090577 L13.0676577,185.658045 C12.9750715,185.604809 12.861164,185.604809 12.7685778,185.658045 C12.6967607,185.699339 12.6484804,185.765834 12.6284779,185.839959 C12.6084754,185.914085 12.6167508,185.995841 12.6580451,186.067658 L14.0905766,188.559048 C15.1375591,190.37991 15.1375591,192.62009 14.0905766,194.440952 L12.6580451,196.932342 C12.6048087,197.024929 12.6048087,197.138836 12.6580451,197.231422 C12.6993394,197.303239 12.765834,197.35152 12.8399593,197.371522 C12.9140846,197.391525 12.9958406,197.383249 13.0676577,197.341955 L17.4532205,194.820288 C18.1013239,194.447633 18.8986761,194.447633 19.5467795,194.820288 L23.9323423,197.341955 C24.0249285,197.395191 24.138836,197.395191 24.2314222,197.341955 C24.3032393,197.300661 24.3515196,197.234166 24.3715221,197.160041 C24.3915246,197.085915 24.3832492,197.004159 24.3419549,196.932342 L22.9094234,194.440952 C21.8624409,192.62009 21.8624409,190.37991 22.9094234,188.559048 L24.3419549,186.067658 C24.3951913,185.975071 24.3951913,185.861164 24.1600407,185.628478 Z"
                        id="星形" stroke-width="1.8"
                        transform="translate(18.500000, 191.500000) rotate(45.000000) translate(-18.500000, -191.500000) ">
                    </path>
                    <path
                        d="M181.133988,28.7250245 C181.084571,28.7116895 181.030067,28.7172064 180.982189,28.744736 L178.490799,30.1772675 C176.639075,31.2419954 174.360925,31.2419954 172.509201,30.1772675 L170.017811,28.744736 C169.956087,28.709245 169.880149,28.709245 169.818424,28.744736 C169.770546,28.7722655 169.73836,28.8165952 169.725025,28.8660121 C169.71169,28.915429 169.717206,28.969933 169.744736,29.0178111 L171.177267,31.5092015 C172.241995,33.3609255 172.241995,35.6390745 171.177267,37.4907985 L169.744736,39.9821889 C169.709245,40.0439131 169.709245,40.1198514 169.744736,40.1815755 C169.772266,40.2294536 169.816595,40.2616405 169.866012,40.2749755 C169.915429,40.2883105 169.969933,40.2827936 170.017811,40.255264 L174.403374,37.7335971 C175.082339,37.3431968 175.917661,37.3431968 176.596626,37.7335971 L180.982189,40.255264 C181.043913,40.290755 181.119851,40.290755 181.181576,40.255264 C181.229454,40.2277345 181.26164,40.1834048 181.274975,40.1339879 C181.28831,40.084571 181.282794,40.030067 181.255264,39.9821889 L179.822733,37.4907985 C178.758005,35.6390745 178.758005,33.3609255 179.822733,31.5092015 L181.255264,29.0178111 C181.290755,28.9560869 181.290755,28.8801486 181.133988,28.7250245 Z"
                        id="星形" stroke-width="2"
                        transform="translate(175.500000, 34.500000) rotate(45.000000) translate(-175.500000, -34.500000) ">
                    </path>
                    <circle id="id_tyx" stroke-width="1.8"
                        transform="translate(120.000000, 4.000000) rotate(-105.000000) translate(-120.000000, -4.000000) "
                        cx="120" cy="4" r="2.1"></circle>
                    <circle id="id_tyx" stroke-width="1.6" cx="207.5" cy="151.5" r="1.7"></circle>
                    <circle id="id_tyx" stroke-width="1.3" cx="168" cy="177" r="1.35"></circle>
                    <circle id="id_tyx" stroke-width="1.8" cx="17" cy="132" r="2.1"></circle>
                </g>
                <path
                    d="M107.5,284 C135.39038,284 158,279.659171 158,273.5 C158,267.70101 135.39038,263 107.5,263 C79.6096201,263 57,267.70101 57,273.5 C57,279.29899 79.6096201,284 107.5,284 Z"
                    id="id_tyx" fill="#E5E5E5"></path>
            </g>
        </g>
    </g>
</svg>